<svg width="55" height="24" viewBox="0 0 55 24" fill="none" xmlns="http://www.w3.org/2000/svg">
<path d="M12.432 18.966C12.432 19.064 12.397 19.169 12.327 19.281C12.257 19.393 12.159 19.449 12.033 19.449C11.963 19.449 11.886 19.428 11.802 19.386C11.298 19.148 10.71 18.952 10.038 18.798C9.366 18.658 8.673 18.532 7.959 18.42C7.259 18.308 6.573 18.182 5.901 18.042C5.229 17.916 4.641 17.748 4.137 17.538C4.221 17.72 4.305 17.867 4.389 17.979C4.473 18.091 4.543 18.189 4.599 18.273C4.669 18.357 4.725 18.434 4.767 18.504C4.809 18.588 4.83 18.693 4.83 18.819C4.83 18.931 4.788 19.015 4.704 19.071C4.62 19.127 4.536 19.155 4.452 19.155C4.284 19.155 4.102 19.05 3.906 18.84C3.724 18.63 3.535 18.364 3.339 18.042C3.143 17.72 2.947 17.363 2.751 16.971C2.569 16.565 2.401 16.173 2.247 15.795C2.093 15.417 1.96 15.074 1.848 14.766C1.736 14.444 1.659 14.199 1.617 14.031L0.693 10.335C0.693 10.293 0.7 10.237 0.714 10.167C0.742 10.097 0.798 10.027 0.882 9.957C0.826 9.845 0.798 9.726 0.798 9.6C0.798 9.208 1.022 8.851 1.47 8.529C1.918 8.193 2.457 7.913 3.087 7.689C3.731 7.451 4.403 7.269 5.103 7.143C5.803 7.017 6.398 6.954 6.888 6.954C7.028 6.954 7.238 6.968 7.518 6.996C7.798 7.01 8.071 7.059 8.337 7.143C8.617 7.227 8.855 7.36 9.051 7.542C9.261 7.71 9.366 7.948 9.366 8.256C9.366 8.55 9.212 8.886 8.904 9.264C8.61 9.642 8.239 10.041 7.791 10.461C7.343 10.881 6.86 11.315 6.342 11.763C5.824 12.197 5.341 12.638 4.893 13.086C4.445 13.52 4.067 13.947 3.759 14.367C3.465 14.773 3.318 15.151 3.318 15.501C3.318 15.767 3.43 16.005 3.654 16.215C3.892 16.411 4.186 16.586 4.536 16.74C4.886 16.894 5.264 17.027 5.67 17.139C6.09 17.251 6.482 17.342 6.846 17.412C7.224 17.482 7.546 17.538 7.812 17.58C8.092 17.608 8.26 17.622 8.316 17.622C8.498 17.622 8.813 17.643 9.261 17.685C9.709 17.727 10.164 17.804 10.626 17.916C11.102 18.014 11.522 18.147 11.886 18.315C12.25 18.483 12.432 18.7 12.432 18.966ZM8.379 8.277C8.379 8.179 8.33 8.095 8.232 8.025C8.134 7.941 8.001 7.878 7.833 7.836C7.679 7.78 7.504 7.745 7.308 7.731C7.126 7.703 6.944 7.689 6.762 7.689C6.482 7.689 6.146 7.731 5.754 7.815C5.362 7.899 4.963 8.004 4.557 8.13C4.165 8.256 3.801 8.382 3.465 8.508C3.129 8.634 2.884 8.739 2.73 8.823C2.436 8.991 2.149 9.18 1.869 9.39C1.589 9.586 1.449 9.782 1.449 9.978C1.449 10.006 1.47 10.034 1.512 10.062C1.554 10.09 1.575 10.139 1.575 10.209C1.575 10.293 1.617 10.51 1.701 10.86C1.785 11.196 1.883 11.581 1.995 12.015C2.107 12.435 2.226 12.855 2.352 13.275C2.492 13.695 2.618 14.031 2.73 14.283C3.304 13.471 3.92 12.764 4.578 12.162C5.25 11.546 5.866 11.007 6.426 10.545C6.986 10.069 7.448 9.656 7.812 9.306C8.19 8.942 8.379 8.599 8.379 8.277ZM15.3451 13.464C15.3451 13.772 15.3031 14.066 15.2191 14.346C15.1351 14.626 15.0231 14.871 14.8831 15.081C14.7431 15.291 14.5751 15.459 14.3791 15.585C14.1971 15.697 13.9941 15.753 13.7701 15.753C13.3781 15.753 13.0701 15.641 12.8461 15.417C12.6221 15.193 12.4471 14.934 12.3211 14.64C12.2091 14.346 12.1321 14.052 12.0901 13.758C12.0621 13.45 12.0481 13.219 12.0481 13.065C12.0481 12.813 12.0831 12.533 12.1531 12.225C12.2371 11.903 12.3421 11.609 12.4681 11.343C12.6081 11.077 12.7621 10.853 12.9301 10.671C13.0981 10.489 13.2731 10.398 13.4551 10.398C13.4971 10.398 13.5601 10.412 13.6441 10.44C13.7421 10.468 13.8401 10.51 13.9381 10.566C14.0361 10.622 14.1201 10.692 14.1901 10.776C14.2741 10.86 14.3301 10.958 14.3581 11.07C14.5121 11.084 14.6661 11.14 14.8201 11.238C14.9741 11.336 15.0581 11.413 15.0721 11.469C15.1841 11.833 15.2541 12.197 15.2821 12.561C15.3241 12.925 15.3451 13.226 15.3451 13.464ZM14.4001 13.086C14.4001 12.876 14.3791 12.659 14.3371 12.435C14.2951 12.197 14.2111 11.959 14.0851 11.721C14.0571 11.735 14.0221 11.742 13.9801 11.742C13.9241 11.742 13.8751 11.735 13.8331 11.721C13.8051 11.707 13.7771 11.7 13.7491 11.7C13.5811 11.7 13.4481 11.749 13.3501 11.847C13.2521 11.931 13.1751 12.05 13.1191 12.204C13.0771 12.344 13.0491 12.498 13.0351 12.666C13.0211 12.834 13.0141 12.995 13.0141 13.149C13.0141 13.303 13.0211 13.478 13.0351 13.674C13.0491 13.856 13.0771 14.031 13.1191 14.199C13.1751 14.367 13.2451 14.514 13.3291 14.64C13.4131 14.752 13.5251 14.808 13.6651 14.808C13.8051 14.808 13.9241 14.738 14.0221 14.598C14.1201 14.444 14.1971 14.269 14.2531 14.073C14.3091 13.877 14.3441 13.688 14.3581 13.506C14.3861 13.31 14.4001 13.17 14.4001 13.086ZM24.5998 15.768C24.5998 16.072 24.5038 16.28 24.3118 16.392C24.1358 16.504 23.9438 16.56 23.7358 16.56C23.3678 16.56 22.9518 16.4 22.4878 16.08C22.0238 15.744 21.5358 15.368 21.0238 14.952C21.0078 14.984 20.9598 15.16 20.8798 15.48C20.8158 15.784 20.7198 16.12 20.5918 16.488C20.4798 16.856 20.3358 17.192 20.1598 17.496C19.9838 17.8 19.7838 17.952 19.5598 17.952C19.3998 17.952 19.2718 17.896 19.1758 17.784C19.0798 17.656 19.0318 17.568 19.0318 17.52C19.0318 17.408 19.0878 17.2 19.1998 16.896C19.3118 16.576 19.4318 16.24 19.5598 15.888C19.6878 15.52 19.8078 15.176 19.9198 14.856C20.0318 14.536 20.0878 14.304 20.0878 14.16C20.0878 14.096 19.9598 13.896 19.7038 13.56C19.4478 13.224 19.1678 12.832 18.8638 12.384C18.5598 11.92 18.2798 11.432 18.0238 10.92C17.7678 10.408 17.6398 9.936 17.6398 9.504C17.6398 9.392 17.6878 9.28 17.7838 9.168C17.8798 9.056 17.9678 9 18.0478 9C18.1438 9 18.2718 9.04 18.4318 9.12C18.6078 9.184 18.7118 9.28 18.7438 9.408C18.9038 9.936 19.1118 10.504 19.3678 11.112C19.6238 11.704 20.0078 12.28 20.5198 12.84C20.5678 12.664 20.6238 12.424 20.6878 12.12C20.7518 11.816 20.8238 11.488 20.9038 11.136C20.9838 10.784 21.0638 10.432 21.1438 10.08C21.2398 9.728 21.3278 9.408 21.4078 9.12C21.5038 8.832 21.5918 8.6 21.6718 8.424C21.7518 8.248 21.8318 8.16 21.9118 8.16C21.9918 8.16 22.1118 8.192 22.2718 8.256C22.4478 8.304 22.5358 8.416 22.5358 8.592C22.5358 8.592 22.5118 8.728 22.4638 9C22.4158 9.256 22.3518 9.568 22.2718 9.936C22.1918 10.304 22.1038 10.704 22.0078 11.136C21.9118 11.552 21.8158 11.928 21.7198 12.264C21.7038 12.312 21.6718 12.4 21.6238 12.528C21.5918 12.656 21.5518 12.792 21.5038 12.936C21.4718 13.08 21.4398 13.216 21.4078 13.344C21.3758 13.456 21.3598 13.528 21.3598 13.56C21.3598 13.704 21.4718 13.88 21.6958 14.088C21.9358 14.28 22.1998 14.472 22.4878 14.664C22.7758 14.84 23.0478 14.992 23.3038 15.12C23.5758 15.248 23.7438 15.312 23.8078 15.312C23.8558 15.312 23.9198 15.304 23.9998 15.288C24.0798 15.272 24.1438 15.264 24.1918 15.264C24.3198 15.264 24.4158 15.336 24.4798 15.48C24.5598 15.624 24.5998 15.72 24.5998 15.768ZM31.0093 15.228C31.0093 15.466 30.9253 15.676 30.7573 15.858C30.6033 16.026 30.4003 16.173 30.1483 16.299C29.9103 16.411 29.6443 16.502 29.3503 16.572C29.0563 16.642 28.7763 16.698 28.5103 16.74C28.2443 16.768 28.0063 16.789 27.7963 16.803C27.6003 16.803 27.4743 16.803 27.4183 16.803C27.1103 16.803 26.8723 16.754 26.7043 16.656C26.5363 16.558 26.4523 16.383 26.4523 16.131C26.4523 16.047 26.4593 15.977 26.4733 15.921C26.4873 15.851 26.5433 15.816 26.6413 15.816C26.6833 15.816 26.7533 15.83 26.8513 15.858C26.9493 15.872 27.0263 15.879 27.0823 15.879C27.1383 15.879 27.3133 15.872 27.6073 15.858C27.9153 15.83 28.2373 15.788 28.5733 15.732C28.9233 15.676 29.2313 15.599 29.4973 15.501C29.7773 15.389 29.9173 15.249 29.9173 15.081C29.9173 15.053 29.7703 14.969 29.4763 14.829C29.1963 14.675 28.7693 14.423 28.1953 14.073C27.7473 13.793 27.4323 13.513 27.2503 13.233C27.0683 12.939 26.9773 12.547 26.9773 12.057C26.9773 11.749 27.0403 11.497 27.1663 11.301C27.3063 11.105 27.4883 10.951 27.7123 10.839C27.9503 10.727 28.2163 10.65 28.5103 10.608C28.8183 10.552 29.1403 10.524 29.4763 10.524C29.5043 10.524 29.5883 10.538 29.7283 10.566C29.8823 10.594 30.0433 10.643 30.2113 10.713C30.3793 10.769 30.5263 10.846 30.6523 10.944C30.7923 11.028 30.8623 11.126 30.8623 11.238C30.8623 11.266 30.8343 11.308 30.7783 11.364C30.7363 11.42 30.6593 11.525 30.5473 11.679C30.5053 11.665 30.4283 11.644 30.3163 11.616C30.2183 11.588 30.0993 11.56 29.9593 11.532C29.8333 11.49 29.7003 11.462 29.5603 11.448C29.4203 11.42 29.3083 11.406 29.2243 11.406C28.8603 11.406 28.5663 11.476 28.3423 11.616C28.1183 11.742 28.0063 11.994 28.0063 12.372C28.0063 12.554 28.0763 12.722 28.2163 12.876C28.3703 13.03 28.5593 13.177 28.7833 13.317C29.0073 13.443 29.2453 13.576 29.4973 13.716C29.7633 13.842 30.0083 13.982 30.2323 14.136C30.4563 14.29 30.6383 14.458 30.7783 14.64C30.9323 14.808 31.0093 15.004 31.0093 15.228ZM38.3708 8.508C38.1888 8.718 37.9298 8.928 37.5938 9.138C37.2578 9.334 36.9218 9.516 36.5858 9.684C36.2498 9.852 35.9558 9.999 35.7038 10.125C35.4518 10.237 35.3258 10.314 35.3258 10.356C35.3258 10.398 35.3538 10.524 35.4098 10.734C35.4658 10.944 35.5288 11.196 35.5988 11.49C35.6828 11.77 35.7668 12.064 35.8508 12.372C35.9348 12.68 36.0048 12.953 36.0608 13.191C36.0888 13.331 36.1238 13.513 36.1658 13.737C36.2078 13.961 36.2428 14.185 36.2708 14.409C36.3128 14.633 36.3478 14.836 36.3758 15.018C36.4038 15.186 36.4178 15.277 36.4178 15.291C36.4178 15.501 36.3828 15.718 36.3128 15.942C36.2428 16.166 36.1308 16.278 35.9768 16.278C35.8928 16.278 35.8158 16.243 35.7458 16.173C35.6758 16.103 35.6128 16.026 35.5568 15.942C35.5008 15.844 35.4588 15.753 35.4308 15.669C35.4028 15.585 35.3888 15.522 35.3888 15.48C35.3888 15.452 35.3888 15.41 35.3888 15.354C35.4028 15.298 35.4098 15.235 35.4098 15.165C35.4098 14.899 35.3678 14.514 35.2838 14.01C35.2558 13.856 35.1998 13.618 35.1158 13.296C35.0318 12.974 34.9478 12.645 34.8638 12.309C34.7658 11.917 34.6538 11.49 34.5278 11.028C34.4718 10.832 34.4368 10.734 34.4228 10.734C34.3248 10.734 34.1568 10.797 33.9188 10.923C33.6948 11.035 33.4358 11.182 33.1418 11.364C32.8478 11.532 32.5398 11.721 32.2178 11.931C31.8958 12.127 31.5948 12.316 31.3148 12.498C31.0348 12.666 30.7968 12.813 30.6008 12.939C30.3908 13.051 30.2648 13.107 30.2228 13.107C30.0408 13.107 29.8938 13.044 29.7818 12.918C29.6698 12.792 29.6138 12.652 29.6138 12.498C29.6138 12.414 29.7328 12.295 29.9708 12.141C30.1948 11.973 30.4818 11.791 30.8318 11.595C31.1678 11.399 31.5388 11.196 31.9448 10.986C32.3368 10.776 32.7008 10.587 33.0368 10.419C33.3868 10.251 33.6738 10.111 33.8978 9.999C34.1358 9.887 34.2548 9.831 34.2548 9.831C34.1288 9.187 34.0238 8.613 33.9398 8.109C33.8698 7.675 33.7998 7.276 33.7298 6.912C33.6738 6.548 33.6458 6.352 33.6458 6.324C33.6458 6.142 33.6808 6.009 33.7508 5.925C33.8348 5.827 33.9258 5.778 34.0238 5.778C34.1778 5.778 34.2758 5.883 34.3178 6.093C34.4718 6.849 34.6118 7.521 34.7378 8.109C34.8778 8.697 35.0108 9.173 35.1368 9.537C35.2628 9.509 35.4798 9.432 35.7878 9.306C36.0958 9.166 36.4178 9.019 36.7538 8.865C37.0898 8.711 37.3908 8.578 37.6568 8.466C37.9368 8.34 38.0978 8.277 38.1398 8.277C38.2238 8.277 38.2728 8.305 38.2868 8.361C38.3148 8.417 38.3428 8.466 38.3708 8.508ZM43.2709 13.464C43.2709 13.772 43.2289 14.066 43.1449 14.346C43.0609 14.626 42.9489 14.871 42.8089 15.081C42.6689 15.291 42.5009 15.459 42.3049 15.585C42.1229 15.697 41.9199 15.753 41.6959 15.753C41.3039 15.753 40.9959 15.641 40.7719 15.417C40.5479 15.193 40.3729 14.934 40.2469 14.64C40.1349 14.346 40.0579 14.052 40.0159 13.758C39.9879 13.45 39.9739 13.219 39.9739 13.065C39.9739 12.813 40.0089 12.533 40.0789 12.225C40.1629 11.903 40.2679 11.609 40.3939 11.343C40.5339 11.077 40.6879 10.853 40.8559 10.671C41.0239 10.489 41.1989 10.398 41.3809 10.398C41.4229 10.398 41.4859 10.412 41.5699 10.44C41.6679 10.468 41.7659 10.51 41.8639 10.566C41.9619 10.622 42.0459 10.692 42.1159 10.776C42.1999 10.86 42.2559 10.958 42.2839 11.07C42.4379 11.084 42.5919 11.14 42.7459 11.238C42.8999 11.336 42.9839 11.413 42.9979 11.469C43.1099 11.833 43.1799 12.197 43.2079 12.561C43.2499 12.925 43.2709 13.226 43.2709 13.464ZM42.3259 13.086C42.3259 12.876 42.3049 12.659 42.2629 12.435C42.2209 12.197 42.1369 11.959 42.0109 11.721C41.9829 11.735 41.9479 11.742 41.9059 11.742C41.8499 11.742 41.8009 11.735 41.7589 11.721C41.7309 11.707 41.7029 11.7 41.6749 11.7C41.5069 11.7 41.3739 11.749 41.2759 11.847C41.1779 11.931 41.1009 12.05 41.0449 12.204C41.0029 12.344 40.9749 12.498 40.9609 12.666C40.9469 12.834 40.9399 12.995 40.9399 13.149C40.9399 13.303 40.9469 13.478 40.9609 13.674C40.9749 13.856 41.0029 14.031 41.0449 14.199C41.1009 14.367 41.1709 14.514 41.2549 14.64C41.3389 14.752 41.4509 14.808 41.5909 14.808C41.7309 14.808 41.8499 14.738 41.9479 14.598C42.0459 14.444 42.1229 14.269 42.1789 14.073C42.2349 13.877 42.2699 13.688 42.2839 13.506C42.3119 13.31 42.3259 13.17 42.3259 13.086ZM52.8526 15.753C52.8526 15.865 52.8386 15.949 52.8106 16.005C52.7826 16.047 52.7126 16.082 52.6006 16.11C52.4746 16.152 52.3136 16.201 52.1176 16.257C51.9356 16.299 51.7326 16.348 51.5086 16.404C51.2846 16.446 51.0536 16.488 50.8156 16.53C50.5916 16.558 50.3816 16.572 50.1856 16.572C49.9476 16.572 49.6816 16.558 49.3876 16.53C49.1076 16.502 48.8346 16.46 48.5686 16.404C48.3026 16.334 48.0576 16.264 47.8336 16.194C47.6236 16.11 47.4696 16.012 47.3716 15.9C47.4416 16.194 47.5046 16.488 47.5606 16.782C47.6166 17.076 47.6586 17.37 47.6866 17.664C47.6866 17.734 47.6656 17.797 47.6236 17.853C47.5956 17.895 47.5046 17.916 47.3506 17.916C47.2806 17.916 47.2106 17.902 47.1406 17.874C47.0846 17.832 47.0356 17.755 46.9936 17.643C46.8676 17.363 46.7626 17.104 46.6786 16.866C46.5946 16.614 46.5176 16.362 46.4476 16.11C46.3916 15.858 46.3286 15.592 46.2586 15.312C46.1886 15.032 46.1046 14.724 46.0066 14.388C45.8526 13.842 45.6916 13.261 45.5236 12.645C45.3556 12.015 45.2016 11.42 45.0616 10.86C44.9216 10.286 44.8096 9.782 44.7256 9.348C44.6416 8.9 44.5996 8.585 44.5996 8.403C44.5996 8.319 44.5996 8.207 44.5996 8.067C44.6136 7.927 44.6346 7.794 44.6626 7.668C44.7046 7.528 44.7536 7.416 44.8096 7.332C44.8796 7.234 44.9706 7.185 45.0826 7.185C45.1526 7.185 45.2226 7.297 45.2926 7.521C45.3766 7.731 45.4466 7.969 45.5026 8.235C45.5726 8.487 45.6286 8.732 45.6706 8.97C45.7266 9.194 45.7546 9.313 45.7546 9.327C45.8106 9.635 45.8736 9.978 45.9436 10.356C46.0276 10.72 46.1116 11.091 46.1956 11.469C46.2796 11.847 46.3706 12.211 46.4686 12.561C46.5666 12.897 46.6716 13.184 46.7836 13.422C46.7976 13.282 46.8466 13.079 46.9306 12.813C47.0146 12.547 47.1266 12.26 47.2666 11.952C47.4066 11.644 47.5606 11.329 47.7286 11.007C47.9106 10.671 48.0926 10.37 48.2746 10.104C48.4706 9.838 48.6596 9.621 48.8416 9.453C49.0376 9.285 49.2196 9.201 49.3876 9.201C49.6536 9.201 49.8356 9.236 49.9336 9.306C50.0456 9.376 50.1016 9.46 50.1016 9.558C50.1016 9.642 49.9826 9.81 49.7446 10.062C49.5066 10.3 49.2406 10.622 48.9466 11.028C48.6526 11.42 48.3866 11.889 48.1486 12.435C47.9106 12.967 47.7916 13.562 47.7916 14.22C47.7916 14.458 47.8546 14.668 47.9806 14.85C48.1206 15.018 48.2956 15.158 48.5056 15.27C48.7296 15.382 48.9746 15.473 49.2406 15.543C49.5206 15.599 49.7936 15.627 50.0596 15.627C50.2976 15.627 50.5566 15.62 50.8366 15.606C51.1166 15.592 51.3756 15.578 51.6136 15.564C51.8656 15.536 52.0756 15.515 52.2436 15.501C52.4256 15.487 52.5376 15.48 52.5796 15.48C52.6496 15.48 52.7126 15.501 52.7686 15.543C52.8246 15.585 52.8526 15.655 52.8526 15.753Z" fill="black"/>
<path d="M53.0004 2.24598L49.8586 3.01896C49.8229 3.02775 49.7921 3.05382 49.7777 3.08879L49.1139 4.61314C49.0948 4.65851 49.1065 4.70926 49.1422 4.73747L52.1352 7.15218C52.1873 7.19393 52.2676 7.17417 52.3013 7.11133L54.2352 3.48445C54.2583 3.44086 54.2521 3.38967 54.2194 3.35704L53.099 2.27166C53.0731 2.24658 53.037 2.23698 53.0004 2.24598ZM52.9027 2.71383L53.6169 3.42575L53.0064 3.57595L52.3958 2.83856L52.9027 2.71383V2.71383ZM51.0989 3.15763L51.9084 2.95846L52.519 3.69585L50.7875 4.12187L51.0989 3.15763ZM50.1054 3.40205L50.6124 3.27731L50.3001 4.24177L49.6896 4.39198L50.1054 3.40205ZM49.9454 4.77287L50.4042 4.65999L51.2624 5.92822L49.9454 4.77287V4.77287ZM50.8638 4.5469L52.5918 4.12176L52.1059 6.4909L50.8638 4.5469V4.5469ZM52.6905 5.57686L53.0506 4.00888L53.5094 3.89601L52.6905 5.57686Z" fill="black"/>
</svg>
